<?xml version="1.0" standalone="no"?>
<!DOCTYPE svg PUBLIC "-//W3C//DTD SVG 1.1//EN" "http://www.w3.org/Graphics/SVG/1.1/DTD/svg11.dtd" >
<svg xmlns="http://www.w3.org/2000/svg">
<metadata>
Created by FontForge 20120731 at Mon Jan 23 11:25:39 2017
 By admin
</metadata>
<defs>
<font id="edui-notadd" horiz-adv-x="1024" >
  <font-face 
    font-family="edui-notadd"
    font-weight="500"
    font-stretch="normal"
    units-per-em="1024"
    panose-1="2 0 6 3 0 0 0 0 0 0"
    ascent="896"
    descent="-128"
    x-height="792"
    bbox="0 -128 1028 896"
    underline-thickness="0"
    underline-position="0"
    unicode-range="U+0078-E672"
  />
<missing-glyph 
 />
    <glyph glyph-name=".notdef" 
 />
    <glyph glyph-name=".notdef" 
 />
    <glyph glyph-name=".null" horiz-adv-x="0" 
 />
    <glyph glyph-name="nonmarkingreturn" horiz-adv-x="341" 
 />
    <glyph glyph-name="x" unicode="x" horiz-adv-x="1001" 
d="M281 543q-27 -1 -53 -1h-83q-18 0 -36.5 -6t-32.5 -18.5t-23 -32t-9 -45.5v-76h912v41q0 16 -0.5 30t-0.5 18q0 13 -5 29t-17 29.5t-31.5 22.5t-49.5 9h-133v-97h-438v97zM955 310v-52q0 -23 0.5 -52t0.5 -58t-10.5 -47.5t-26 -30t-33 -16t-31.5 -4.5q-14 -1 -29.5 -0.5
t-29.5 0.5h-32l-45 128h-439l-44 -128h-29h-34q-20 0 -45 1q-25 0 -41 9.5t-25.5 23t-13.5 29.5t-4 30v167h911zM163 247q-12 0 -21 -8.5t-9 -21.5t9 -21.5t21 -8.5q13 0 22 8.5t9 21.5t-9 21.5t-22 8.5zM316 123q-8 -26 -14 -48q-5 -19 -10.5 -37t-7.5 -25t-3 -15t1 -14.5
t9.5 -10.5t21.5 -4h37h67h81h80h64h36q23 0 34 12t2 38q-5 13 -9.5 30.5t-9.5 34.5q-5 19 -11 39h-368zM336 498v228q0 11 2.5 23t10 21.5t20.5 15.5t34 6h188q31 0 51.5 -14.5t20.5 -52.5v-227h-327z" />
    <glyph glyph-name="close" unicode="&#xe654;" 
d="M826 131l-252 253l252 252q14 13 14 31.5t-13.5 32t-32 13.5t-31.5 -13l-252 -253l-253 253q-13 13 -31.5 13t-31.5 -13.5t-13 -32t13 -31.5l253 -252l-253 -253q-13 -13 -13 -31.5t13 -31.5t31.5 -13t31.5 13l253 253l252 -253q13 -13 31.5 -13t32 13t13.5 31.5
t-14 31.5z" />
    <glyph glyph-name="italic" unicode="&#xe62d;" 
d="M726 794h-262l-16 -92h78l-112 -636h-78l-16 -92h262l16 89h-79l113 639h78z" />
    <glyph glyph-name="insertcaption" unicode="&#xe657;" 
d="M506 849v-461h461v461h-461zM916 593h-154v-154h-51v154h-153v51h153v154h51v-154h154v-51zM181 785h-133v60h338v-60h-134v-392h-71v392zM47 388v-461h922v461h-922zM98 146h381v-168h-381v168zM530 -22v168h388v-168h-388z" />
    <glyph glyph-name="insertparagraph" unicode="&#xe62e;" 
d="M183 290h-132v60h336v-59h-131v-392h-73v391zM51 862v-461h922v461h-922zM102 621h381v-169h-381v169zM535 452v169h387v-169h-387z" />
    <glyph glyph-name="inserttitlecol" unicode="&#xe659;" 
d="M506 845v-461h-148v-51h103v-103h46v-153h-49v-103h-103v-51h615v922h-464zM697 -26h-139v238h139v-238zM697 264h-139v246h139v-246zM697 562h-139v232h139v-232zM916 -26h-168v238h168v-238zM916 264h-168v246h168v-246zM916 562h-168v232h168v-232zM461 384h45v461
h-460v-461h312h103zM302 435h-51v154h-154v51h154v154h51v-154h154v-51h-154v-154zM98 383h-51v-154h51v103h103v51h-103zM97 78h-51v-154h154v51h-103v103z" />
    <glyph glyph-name="insertimage" unicode="&#xe617;" 
d="M704 152l-171 -115l-295 318l-199 -205h-3v-124h666zM838 253h120v489h-922v-460l205 209l307 -331l226 150zM563 324q-69 0 -117.5 49t-48.5 117.5t48.5 117.5t117.5 49t118 -49t49 -118q-1 -68 -49.5 -117t-117.5 -49v0zM1010 101h-104v103h-51v-103h-101v-51h101v-102
h51v102h104v51z" />
    <glyph glyph-name="previousstep" unicode="&#xe630;" 
d="M483 2q-14 0 -26 6h-3l-367 332q-21 15 -23 41v1v1q0 28 23 45l370 328q13 13 31 13q23 0 35 -21q7 -13 7 -28v-191h30v0q51 0 99 -12q91 -23 159 -87q21 -12 51.5 -57.5t48.5 -99.5q11 -8 26 -69t17 -128q0 9 -0.5 16.5t-1 12.5t-0.5 7v3v1v-3q0 -20 -12 -36
q-12 -14 -30 -14v0q-28 3 -43 28l1 4q-37 63 -103 93q0 4 -14.5 11t-39.5 14.5t-51 10.5l4 1q-15 6 -77 6q-8 0 -16 -1h-48v-160q1 -5 1 -11q0 -23 -13 -41q-14 -16 -35 -16v0v0zM145 384l312 -281v149q7 21 24.5 34.5t39.5 13.5h5h51h5q85 0 165 -28q94 -33 160 -109
l-44 42q-17 69 -58.5 125t-100.5 92q-18 11 -58.5 21.5t-84.5 10.5h-5q-7 1 -16 1t-18 -1h-8h-4q-31 0 -48 25q-2 8 -2 17q0 6 1 12v153z" />
    <glyph glyph-name="nextstep" unicode="&#xe631;" 
d="M501 13q-13 18 -13 41v11v160h-48h-6q-72 0 -139 -23q-75 -26 -129 -86v2q-12 -11 -31 -54q-4 -10 -7 -19l19 37q-15 -25 -43 -26h-2v0q-17 0 -29 13q-12 16 -12 36q0 8 2 16q18 142 97 259q9 21 50.5 57.5t92.5 60.5l26 10q44 13 84 17q44 2 45 2v0h29v190q1 15 9 27
q10 19 34 19q18 0 31 -13l370 -325q22 -17 22 -45v-4q-2 -26 -24 -40l-366 -329h-4q-11 -6 -25 -6q-1 -1 -2 -1q-18 0 -31 13v0zM559 658v-153q-1 -16 -10 -29q-16 -23 -46 -23h-4h-7q-8 1 -17 1t-18 -1h-3q-94 0 -173 -52q-53 -41 -88.5 -100.5t-45.5 -128.5l16 40
q79 63 179 77q-11 0 3 3q36 7 90 7h6h51h4q22 0 39.5 -13t23.5 -34l1 -149l310 278z" />
    <glyph glyph-name="scaleboard" unicode="&#xe632;" 
d="M942 593h-146l163 163q14 13 14 32t-13.5 32.5t-32.5 13.5t-33 -13l-164 -164v148v1q0 14 -10 23.5t-23 10.5h-24h-2q-13 0 -22 -9t-10 -21v-273v-4q0 -12 9 -21t21 -9h2h274v0q14 0 24.5 10t10.5 25v21q-1 15 -12 24.5t-26 9.5v0v0zM978 201v23q0 14 -10 24t-24 11h-273
h-2q-12 0 -21 -9t-9 -21q0 -2 1 -4l-1 -273q1 -12 10 -21t22 -9h3h25v0q13 0 23 9.5t10 23.5v2v145l164 -163q13 -14 32 -14t32.5 14t13.5 33t-13 32l-164 164h144h2q14 0 24.5 9.5t11.5 23.5h-1zM389 249q-10 9 -23 9h-1h-274q-14 0 -24 -10t-10 -24v-24q1 -14 11.5 -23.5
t24.5 -9.5h2h146l-165 -163q-13 -14 -13 -33t13 -32.5t32 -13.5t32 14l167 163v-144v-1q0 -14 9.5 -23.5t23.5 -9.5h18h3q13 0 22 8.5t10 21.5v273v2q0 12 -9 21zM396 553v256q0 13 -9.5 22.5t-22.5 9.5q-3 0 -6 -1h-22v0q-14 0 -23.5 -9.5t-9.5 -23.5v-1v-148l-163 163
q-13 14 -32 14t-32 -13.5t-13 -32.5t13 -33l162 -162h-143h-1q-15 0 -25.5 -10t-11.5 -24v-22q0 -14 10 -24t24 -11h274h1q13 0 22 10q8 8 8 20v3v17z" />
    <glyph glyph-name="brush" unicode="&#xe633;" 
d="M989 611l-247 249q-36 35 -86 35t-86 -35l-475 -476q-30 -24 -33 -61l-62 -343v-3q0 -43 28 -77q28 -28 67 -28h5h14l344 62q37 6 57 36l472 471q37 35 37 85.5t-37 84.5h2zM449 26l-349 -62l60 348l349 349l289 -288zM922 507l-63 -72l-289 289l65 66q9 7 21 7t21 -8
l245 -249q8 -9 9 -21q3 -3 -9 -12z" />
    <glyph glyph-name="background" unicode="&#xe65d;" 
d="M487 372v-250l111 114l167 -180l122 81l103 -86v321h-503zM774 146q-37 0 -63.5 26.5t-26.5 64t26.5 64t64 26.5t64 -26.5t26.5 -63.5v-1q0 -37 -26.5 -63.5t-63.5 -27.5zM884 74l-127 -84l-160 172l-109 -111v-67h500v1h-3zM102 308v391q0 12 8.5 20t20.5 8h614
q12 0 20 -8t8 -20v-287h56v315q0 23 -16.5 39t-39.5 16h-671h-2q-23 0 -39 -16t-16 -39v0v-445v-2q0 -24 16 -40t39 -16h3h277v-56h-140h-4q-11 0 -19.5 -8t-8.5 -20t8.5 -20t19.5 -8h4h205v170h-316q-11 0 -18.5 7.5t-8.5 18.5z" />
    <glyph glyph-name="strikethrough" unicode="&#xe60c;" 
d="M989 238q-39 -47 -99 -48q-55 0 -89.5 39.5t-40.5 107.5h235v52h-235q6 68 42 108.5t90 40.5q53 -1 87 -41l29 35q-47 51 -116 51v0q-78 0 -128 -51.5t-57 -141.5h-103q44 27 44 79v3q0 102 -145 102h-124v-185h-112l-62 185h-60l-63 -185h-58v-52h41l-65 -186h56l41 131
h153l41 -129h57l-63 184h94v-185h133q73 0 116.5 31.5t43.5 91.5v2q0 34 -19 61l51 -1q7 -90 57 -141.5t125 -51.5h3q78 0 127 60zM432 532h66q50 0 75 -16t25 -52q0 -37 -24 -53.5t-79 -16.5h-63v138zM173 532q17 -65 42 -142h-84q20 60 42 140v2zM238 325h-128l4 14h119z
M621 279q0 -83 -115 -83h-74v143h154q36 -18 36 -58v-4z" />
    <glyph glyph-name="spechars" unicode="&#xe603;" 
d="M897 -58l-135 135q-102 -86 -237 -86h-4h-7q-133 0 -234 86l-134 -135l-59 61l137 131q-83 106 -84 242v6q0 131 84 230l-137 130l59 63l135 -134q106 83 242 84h4q132 0 234 -85l137 135l58 -63l-137 -130q84 -100 84 -232v-8v-1q0 -134 -84 -238l138 -130zM523 671h-9
q-122 0 -207 -88q-86 -84 -86 -205v-3v-1q0 -61 24 -115.5t67 -94.5q86 -89 209 -89q61 0 115 23.5t95 65.5q88 85 88 208v2v6q0 60 -23.5 113t-65.5 92q-85 86 -206 86h-1v0z" />
    <glyph glyph-name="clearboard" unicode="&#xe634;" 
d="M980 742h-288v103h-307v-103h-289v0q-8 0 -13 -5t-6 -12v-28q1 -7 6 -12.5t13 -5.5v0h47v-736q0 -8 6 -14t14 -6v0h750h1q8 0 14 6t6 14v736h46v0q8 0 13.5 5.5t5.5 12.5v27q0 8 -5.5 13t-13.5 5v0v0zM436 794h205v-52h-205v52zM385 -13h-154h-1q-8 0 -13.5 5.5
t-6.5 13.5v484h175v-503zM626 -13h-176v503h176v-503zM870 7q0 -8 -5.5 -14t-14.5 -6v0h-158v503h178v-483zM870 553h-662v126h662v-126z" />
    <glyph glyph-name="bold" unicode="&#xe604;" 
d="M861 245v-5q0 -55 -24 -104q-31 -64 -95 -97q-5 -8 -39 -20.5t-71 -16.5l-29 -5q-29 -3 -57 -3h-14h-287v816h242q8 1 17 1q61 0 121 -8q56 -9 106 -42q8 -2 24 -21.5t25 -43.5q3 -4 7 -24t4 -40v-5v-4q0 -53 -30 -95q-43 -59 -113 -78l34 8q89 -16 142 -88
q15 -17 26 -50t11 -69v-6v0zM678 613q1 3 1 5q0 25 -11 47q-13 26 -41 37q-20 13 -60 14q-29 3 -84 3h-129v-237h140h15q35 0 69 5q36 6 66 31q5 2 13 15.5t12 28.5q9 16 9 52v-1zM748 241v8q0 37 -15 72q-22 41 -66 56q-18 7 -53 7q-39 4 -84 4h-7h-169v-301h143h13
q55 0 108 8q46 6 84 35q11 8 23 25.5t18 39.5l5 35v6v5v0z" />
    <glyph glyph-name="fullscreen" unicode="&#xe656;" 
d="M870 798h-716q-43 0 -73 -30t-30 -72v-512q0 -43 30 -73t73 -30h716q43 0 73 30t30 73v512q0 42 -30 72t-73 30zM896 209q0 -21 -15 -36t-36 -15v0h-666q-21 0 -36 15t-15 36v0v461q0 21 15 36t36 15h666v0q21 0 36 -15t15 -36v-461zM730 5h-436q-16 0 -27 -11.5
t-11 -27.5t11 -27t27 -11h436q16 0 27 11t11 27t-11 27.5t-27 11.5z" />
    <glyph glyph-name="formatmatch" unicode="&#xe60d;" 
d="M154 474v102h256v154h204v-154h256v-102h-716zM154 371v-308l100 205l153 -204h463v307h-716z" />
    <glyph glyph-name="underline" unicode="&#xe605;" 
d="M269 33h541v-90h-541v90zM805 836v-401v-7q0 -64 -13 -126q-13 -64 -61 -113q-8 -13 -35 -28.5t-58 -22.5q-8 -4 -36.5 -8t-59.5 -4h-12h-8q-53 0 -104 13q-58 16 -102 59q0 -1 -2.5 1.5t-6.5 8t-8.5 13t-9 17.5t-8.5 19q-2 0 -5.5 10t-7.5 28.5t-6 36.5q-1 -7 -3 3
q-4 20 -4 53l1 448h93v-401q-1 -10 -1 -21q0 -49 11 -97q12 -47 49 -80q4 -5 20.5 -12t35.5 -10q18 -7 61 -7h4h3q39 0 77 10q39 10 65 43q24 28 30 78q8 24 8 83v14v400h93z" />
    <glyph glyph-name="removeformat" unicode="&#xe60e;" 
d="M666 738l-615 -563l154 -153h358l410 409zM563 124h-307l-51 51l205 205l204 -205z" />
    <glyph glyph-name="blockquote" unicode="&#xe60f;" 
d="M434 22v244h-131v22q0 112 49.5 209.5t136.5 162.5l-55 57q-233 -159 -233 -487v-204zM798 22v244h-132q-1 10 -1 22q0 112 50 209.5t136 162.5l-54 57q-234 -159 -234 -487v-204z" />
    <glyph glyph-name="anchor" unicode="&#xe618;" 
d="M928 338l-35 -234l-69 68q-130 -110 -302 -110h-6h-4q-171 0 -304 107l-62 -63l-36 232l238 -35l-64 -63q89 -73 205 -77l-14 382q-40 14 -65.5 48t-25.5 77q3 54 42.5 91t94 37t93.5 -37t43 -91q-1 -44 -27 -78t-66 -47l-1 -383q117 13 200 94l-75 48zM591 672v2
q0 29 -20.5 49.5t-49.5 20.5t-49.5 -20.5t-20.5 -49.5t20.5 -49.5t49.5 -20.5h1q28 0 48 19.5t21 48.5v0z" />
    <glyph glyph-name="help" unicode="&#xe619;" 
d="M515 0q-104 0 -192.5 51.5t-140 140t-51.5 192.5t51.5 192.5t140 140t192.5 51.5t192.5 -51.5t140 -140t51.5 -192.5t-51.5 -192.5t-140 -140t-192.5 -51.5v0zM515 717q-90 0 -167 -44.5t-121.5 -121.5t-44.5 -167t44.5 -167t121.5 -121.5t167 -44.5t167 44.5
t121.5 121.5t44.5 167t-44.5 167t-121.5 121.5t-167 44.5v0zM538 282h-72v22v5q0 28 13.5 51.5t37.5 37.5q51 38 48 72q-2 20 -16.5 33t-34.5 13v0q-58 0 -72 -70l-78 16q7 55 48 91.5t97 36.5q10 0 20 -1q115 -6 125 -108v-1q0 -35 -18.5 -65t-48.5 -46q-52 -33 -49 -71
v-16zM546 164h-85v82h86z" />
    <glyph glyph-name="horizontal" unicode="&#xe638;" 
d="M99 435h820v-102h-820v102z" />
    <glyph glyph-name="simpleupload" unicode="&#xe61a;" 
d="M176 179l130 229l130 -229h-260zM468 179l196 326l196 -326h-392zM927 691v-614h-819v614h819zM927 742h-819q-21 0 -36 -15t-15 -36v-614q0 -21 15 -36t36 -15v0h819v0q21 0 36 15t15 36v0v614q0 21 -15 36t-36 15v0z" />
    <glyph glyph-name="indent" unicode="&#xe61b;" 
d="M45 744h922v-102h-922v102zM45 540h614v-103h-614v103zM45 129h922v-102h-922v102zM45 335h614v-103h-614v103zM969 383l-103 -77l-103 -77v308l103 -77z" />
    <glyph glyph-name="justifycenter" unicode="&#xe61c;" 
d="M44 744h921v-102h-921v102zM197 540h615v-103h-615v103zM44 335h921v-103h-921v103zM197 130h615v-102h-615v102z" />
    <glyph glyph-name="justifyleft" unicode="&#xe61d;" 
d="M50 744h922v-102h-922v102zM50 335h922v-103h-922v103zM50 540h615v-103h-615v103zM50 130h615v-102h-615v102z" />
    <glyph glyph-name="justifyjustify" unicode="&#xe61e;" 
d="M49 741h922v-102h-922v102zM49 537h922v-103h-922v103zM49 332h922v-103h-922v103zM49 127h922v-102h-922v102z" />
    <glyph glyph-name="justifyright" unicode="&#xe61f;" 
d="M973 646h-922v102h922v-102zM973 236h-922v102h922v-102zM973 441h-615v102h615v-102zM973 31h-615v103h615v-103z" />
    <glyph glyph-name="link" unicode="&#xe620;" 
d="M666 259h64q58 2 99 44t41 101v4v4q0 59 -41 101t-99 44h-128q-59 -2 -100 -44t-41 -101v-4q0 -22 7 -44l-110 4v19.5v21.5v7q0 90 63 155.5t153 68.5h180q91 -2 155 -67.5t64 -156.5v-8v-5q0 -91 -64 -156.5t-155 -67.5h-88v80zM358 557h-65q-58 -2 -98.5 -44
t-40.5 -101v-4v-4q0 -59 41 -101t99 -44h128q59 2 100 44t41 101v4q0 23 -7 44l103 -3q4 -20 4 -42v-4q0 -90 -63 -155.5t-153 -68.5h-180q-90 4 -153 69t-63 155v5v8q0 90 63 155.5t153 68.5h91v-83z" />
    <glyph glyph-name="cleardoc" unicode="&#xe621;" 
d="M816 612h-153v182q0 21 -15 36t-37 15v0h-402v0q-24 0 -41 -17.5t-17 -41.5v-1v-804q0 -24 17 -41t41 -17v0h600q24 0 41.5 17.5t17.5 41.5v579v0q0 21 -15 36t-36 15h-1v0zM816 -19q0 -8 -8 -8h-599v0q-7 0 -7 8v804v1q0 8 7 8v0h391q9 0 9 -10v-172q0 -21 15 -36
t36 -15h146q10 0 10 -10v-570z" />
    <glyph glyph-name="drafts" unicode="&#xe610;" 
d="M791 570v153q0 13 -9 22.5t-22 9.5h-218v64q0 26 -18.5 44.5t-44.5 18.5v0h-125q-26 0 -44 -18.5t-18 -44.5v-62h-218q-13 0 -22.5 -9.5t-9.5 -21.5v-625q0 -13 9.5 -22t22.5 -9h280v-187h437l187 187v500h-187zM354 819h125v-62h-125v62zM167 694h499v-62h-499v62z
M791 -29v99h99zM916 133h-187v-188h-312v563h499v-375z" />
    <glyph glyph-name="subscript" unicode="&#xe611;" 
d="M128 761l507 -507l-72 -72l-507 507zM635 689l-506 -507l-73 72l507 507zM658 26v33q0 32 18.5 60t45 47t53 36t45 32.5t18.5 29.5q0 31 -37 31q-53 -5 -87 -45l-47 64q56 62 140 62h5q63 0 98.5 -30t35.5 -76q0 -30 -18 -54t-41 -38t-54 -33.5t-47 -35.5h160v-83h-288z
" />
    <glyph glyph-name="unlink" unicode="&#xe622;" 
d="M307 499h-63q-38 0 -65.5 27.5t-27.5 65.5v19q0 38 27.5 65.5t65.5 27.5h325q39 0 66 -27.5t28 -65.5v-18q-1 -39 -28 -66t-66 -27h-57v-103h59q81 1 138.5 58t57.5 138v18q0 81 -57.5 138t-138.5 57h-327q-81 0 -138 -57t-57 -138v-18v0q0 -81 57 -138.5t138 -57.5h63
v102zM768 367h-57v-102h57q39 -1 66 -28t27 -65v-18v0q0 -39 -27 -66.5t-66 -27.5h-323q-39 0 -66 27.5t-27 65.5v18q0 39 27 66t66 27h62v103h-62q-81 -1 -138 -58t-58 -138v-18q1 -81 58 -138t138 -57h323q81 0 138 57t58 138v18v0q0 81 -57.5 138.5t-138.5 57.5v0z" />
    <glyph glyph-name="superscript" unicode="&#xe612;" 
d="M130 589l506 -507l-72 -73l-507 507zM636 517l-507 -507l-72 72l507 507zM659 395v34q0 31 18.5 59t45 47.5t53 36t45 32.5t18.5 30q0 31 -37 31q-54 -5 -88 -45l-48 62q56 61 138 61q4 0 8 -1q62 0 98 -29.5t36 -76.5q0 -29 -18.5 -53.5t-41.5 -38.5t-53.5 -33
t-46.5 -35h160v-81h-287z" />
    <glyph glyph-name="forecolor" unicode="&#xe63a;" 
d="M397 381l80 259l81 -260h-161v1zM550 738h-123l-184 -580h85l44 139h213l44 -139h107l-186 584v-4zM205 99h568v-73h-568v73z" />
    <glyph glyph-name="backcolor" unicode="&#xe655;" 
d="M875 241q-11 -20 -27.5 -50.5t-43.5 -93.5t-27 -87q-1 -4 -1 -7q0 -41 29 -70t70 -29t70 29t29 70v7q-1 24 -25.5 81.5t-49 104.5t-24.5 45zM445 769l-23 -24l-115 117l-95 -93l117 -117l-278 -279l394 -395l396 395zM182 374l264 263l265 -264z" />
    <glyph glyph-name="touppercase" unicode="&#xe623;" 
d="M281 628l-243 -579h103l58 139h257l56 -139h102l-241 579h-92zM229 269l81 205q17 34 19 74l1 -18q2 -35 18 -65l73 -196h-192zM951 145v137q0 141 -143.5 139t-167.5 -109l74 -21q9 65 91 61q77 4 69 -63q-47 -23 -101 -23h-5q-135 -14 -137 -118t128 -100h13
q68 0 112 51q0 -27 21 -44h77q-31 35 -31 82v9v-1zM874 197q-7 -77 -102 -84q-62 0 -60 37t74 51q50 1 90 31zM611 580q79 -4 142.5 -21t67.5 -35l59 8q-3 25 -26 44.5t-52.5 30.5t-69.5 18.5t-67 10.5t-54 4v102l-173 -131l173 -130v99z" />
    <glyph glyph-name="tolowercase" unicode="&#xe624;" 
d="M287 651l-242 -579h102l58 139h256l56 -139h102l-240 579h-92zM236 292l81 205q17 34 18 74l1 -18q3 -35 19 -65l73 -196h-192zM957 168v135q0 141 -143.5 139t-166.5 -106l74 -21q9 65 91 60q76 5 69 -62q-47 -23 -101 -23h-6q-134 -14 -136 -118.5t127 -99.5
q6 -1 13 -1q68 0 113 52q0 -27 21 -44h77q-32 35 -32 82v8v-1zM881 220q-8 -77 -103 -84q-62 0 -60 37t74 51h1q50 0 90 28zM775 603q-80 -4 -143 -21t-67 -35l-59 9q12 91 269 106v102l173 -130l-173 -129v98z" />
    <glyph glyph-name="insertvideo" unicode="&#xe627;" 
d="M435 173l204 205l-204 205v-410zM896 20h-768q-32 0 -54.5 22.5t-22.5 54.5v563q0 32 22.5 54.5t54.5 22.5h768q32 0 54.5 -22.5t22.5 -54.5v-563q0 -32 -22.5 -54.5t-54.5 -22.5zM128 686q-11 0 -18.5 -7.5t-7.5 -18.5v-563q0 -11 7.5 -18.5t18.5 -7.5h768v0
q11 0 18.5 7.5t7.5 18.5v0v563q0 11 -7.5 18.5t-18.5 7.5v0h-768z" />
    <glyph glyph-name="emotion" unicode="&#xe606;" 
d="M512 845v0q-94 0 -179 -36.5t-147 -98.5t-98.5 -147t-36.5 -179t36.5 -179t98.5 -147t147 -98.5t179 -36.5t179 36.5t147 98.5t98.5 147t36.5 179t-36.5 179t-98.5 147t-147 98.5t-179 36.5zM512 -5q-106 0 -195.5 52t-141.5 141.5t-52 195.5t52 195.5t141.5 141.5
t195.5 52t195.5 -52t141.5 -141.5t52 -195.5t-52 -195.5t-141.5 -141.5t-195.5 -52zM307 510q0 -22 16 -37.5t38 -15.5t38 15.5t16 37.5t-15.5 38t-36.5 16h-2q-22 0 -38 -15.5t-16 -38.5v0v0zM610 510q0 -22 15.5 -37.5t38 -15.5t38 15.5t15.5 38.5q0 21 -15 36.5t-36 16.5
h-1q-23 0 -38.5 -15.5t-15.5 -38.5v0h-1zM296 314q4 -87 67 -147t150 -60t149.5 60t67.5 146z" />
    <glyph glyph-name="pasteplain" unicode="&#xe613;" 
d="M650 713h-109v54v0q0 22 -15.5 38t-38.5 16h-108q-23 0 -38.5 -16t-15.5 -38v-54h-108v-124h433v124zM487 713h-108v54h108v-54zM524 304h106v-208h55v210h106v54h-268zM758 503v183q0 11 -8 19t-19 8h-54v-146h-488v146h-53q-12 0 -19.5 -8t-7.5 -19v-631q0 -11 7.5 -19
t19.5 -8h256v-73h530v548h-164zM448 9v440h418v-440h-418z" />
    <glyph glyph-name="preview" unicode="&#xe63b;" 
d="M246 384q0 -85 60 -144.5t145 -59.5q65 0 118 38l153 -155l36 37l-150 150q51 57 51 134q0 83 -60 143t-144.5 60t-144.5 -60t-60 -145zM604 384q0 -64 -45 -109t-108.5 -45t-108.5 45t-45 109t45 109t109 45v0q63 0 108 -45t45 -109zM814 615h-154v179q0 21 -15 36
t-36 15v0h-404q-23 -1 -39.5 -17.5t-17.5 -40.5v-804v-1q0 -24 16.5 -41t40.5 -18h602q24 0 41.5 17.5t17.5 41.5v582v0q0 21 -15 36t-36 15h-1v0zM814 -17q0 -8 -8 -8h-601v0q-8 0 -8 8v804q1 7 8 7v0h390q10 0 10 -10v-169q0 -21 15 -36t36 -15h146q9 -1 10 -10v-571h2z
" />
    <glyph glyph-name="print" unicode="&#xe63c;" 
d="M371 396h295v-60h-295v60zM371 300h295v-60h-297zM959 610q0 13 -9 22t-22 9v0h-145v153h-540v-154h-147q-13 0 -22 -9t-9 -22v0v-379h178v-69l197 -189h343v258h176v267v1.5v1.5v110zM862 607q15 0 25.5 -10.5t10.5 -25.5t-10.5 -25.5t-25.5 -10.5t-25.5 10.5
t-10.5 25.5v0q0 15 10.5 25.5t25.5 10.5v0zM298 736h424v-96h-421zM722 408v-388h-244v174h-177v213h-58v-106h-52v169h639v-169h-47v106z" />
    <glyph glyph-name="searchreplace" unicode="&#xe65e;" 
d="M808 826h-745v-893h892v594zM619 742v-219h-92v219h92zM300 15v219h417v-219h-417zM873 15h-72v300h-583v-301h-73v728h103v-299h453v299h56l116 -236v-491z" />
    <glyph glyph-name="selectall" unicode="&#xe614;" 
d="M217 743l102 102h-36l-102 -102h36zM153 715l-102 -102v-36l102 102v36zM181 845l-130 -130v-36l166 166h-36zM78 845l-27 -27v-36l63 63h-36zM526 743l102 102h-36l-103 -102h37zM153 407l-102 -103v-36l102 102v37zM153 509l-102 -102v-37l102 103v36zM423 743l103 102
h-37l-102 -102h36zM321 743l102 102h-36l-102 -102h36zM153 611l-102 -102v-36l102 102v36zM153 94l-102 -103v-36l102 103v36zM839 743l102 102h-36l-103 -102h37zM153 196l-102 -102v-36l102 102v36zM736 743l103 102h-37l-102 -102h36zM153 298l-102 -102v-36l102 103v35
zM634 743l102 102h-36l-102 -102h36zM870 468l102 102v37l-102 -103v-36zM392 26l-103 -102h37l102 102h-36zM870 570l102 103v36l-102 -102v-37zM289 26l-102 -102h36l103 102h-37zM187 26l-103 -102h37l102 102h-36zM870 709v-36l102 102v37zM870 162l102 103v36
l-102 -102v-37zM697 26l-102 -102h36l103 102h-37zM870 265l102 102v36l-102 -102v-36zM595 26l-102 -102h36l102 102h-36zM493 26l-103 -102h36l103 102h-36zM870 367l102 103v36l-102 -103v-36zM940 -76l32 32v36l-68 -68h36zM838 -76l134 134v37l-171 -171h37zM801 26
l-102 -102h36l103 102h-37zM870 58l102 103v36l-102 -102v-37zM335 286q5 -102 132 -102q7 -1 15 -1q69 0 115 52q0 -28 21 -46h80q-33 37 -33 85q0 4 1 8v141q0 146 -149 143.5t-172 -109.5l76 -22q10 67 94 63q79 4 72 -65q-49 -24 -105 -24h-6q-139 -15 -141 -123z
M587 370v-34q-7 -79 -108 -86q-65 0 -62.5 38.5t77.5 50.5q52 1 95 32z" />
    <glyph glyph-name="mergecells" unicode="&#xe63d;" 
d="M922 845h-820q-21 0 -36 -15t-15 -36v-820q0 -21 15 -36t36 -15v0h820v0q21 0 36 15t15 36v0v820q0 21 -15 36t-36 15v0zM154 468h210v-194h-210v194zM416 26v442h454v-442h-454zM416 518v224h205v-222zM871 518h-204v224h204v-224zM365 742v-222h-211v222h211zM154 222
h210v-196h-210v196z" />
    <glyph glyph-name="deletecol" unicode="&#xe63e;" 
d="M703 596v-204h190v442h-190v-238zM862 596v-176h-128v176h128zM734 801h128v-174h-128v174zM457 627v205h-348v-442h348v237zM426 803v-176h-128v176h128zM140 627v176h128v-176h-128zM140 422v174h128v-176zM426 422h-128v174h128v-174zM644 218v61l-62 -61h62zM582 218
zM516 394h127v-115l31 31v317h-189v-315l31 -30v112zM516 599h128v-177h-128v177zM692 -60l83 83l-109 109l110 110l-83 83l-18 -18v-123h-190v128l-13 14l-83 -84l110 -110l-110 -110l83 -83l110 110zM516 215h66l-66 67v-67z" />
    <glyph glyph-name="deleterow" unicode="&#xe63f;" 
d="M307 589h205v192h-442v-192h237zM307 748h177v-128h-177v128zM102 622v128h175v-128h-175zM279 345h-205v-348h444v348h-240h1zM102 314h176v-128h-176v128zM278 26h-176v128h176v-128zM482 26h-175v128h177zM482 312v-128h-175v128h175zM687 529h-61l61 -61v61zM687 468
zM512 403v128h115l-31 31h-320v-190h316l31 31h-111zM307 403v128h176v-128h-176zM966 580l-83 83l-110 -110l-110 111l-84 -84l19 -18h122v-190h-128l-13 -13l83 -83l111 111l110 -110l83 83l-110 110zM690 403v67l-67 -67h67z" />
    <glyph glyph-name="attachment" unicode="&#xe628;" 
d="M972 523l-520 -514q-65 -64 -156 -64t-156 64q-64 63 -64 153t64 154l469 460q43 42 103.5 42t104.5 -42q42 -42 42 -102t-42 -103l-469 -460q-21 -20 -51 -20t-51 20q-21 21 -21 51t21 51l416 409l-51 52l-416 -410q-43 -42 -43 -102t43 -102q43 -43 104 -43t104 43
l466 463q64 63 64 153t-64 154q-65 63 -156 63t-156 -64l-496 -486q-61 -78 -61 -178q0 -122 87 -208q87 -85 209 -85q101 0 181 62l546 537l-51 51v1z" />
    <glyph glyph-name="music" unicode="&#xe640;" 
d="M841 834l-483 -81h-23v0q-9 0 -15.5 -6.5t-6.5 -15.5v-552q-29 17 -64 17q-53 0 -90.5 -37.5t-37.5 -90.5t37.5 -90.5t90.5 -37.5t90.5 37.5t37.5 90.5q1 4 1 8t-1 8q1 1 1 3q0 1 -1 3v448l450 79v-311q-29 17 -64 17q-53 0 -90.5 -37.5t-37.5 -90.5t37.5 -90.5
t90.5 -37.5t90.5 37.5t37.5 90.5v7v8v3v3v598q0 17 -17 21q-4 1 -7 1t-6 -1h-12h-1q-4 0 -7 -2v1z" />
    <glyph glyph-name="gmap" unicode="&#xe629;" 
d="M531 330h102v-124q-34 -26 -77 -26h-6q-81 0 -124 54t-43 151q0 94 45 145.5t121 51.5h3q63 0 106 -47l45 51q-63 67 -154 67h-3q-108 0 -177 -74.5t-69 -201.5t67.5 -199.5t176.5 -72.5h7q92 0 160 62v231h-180v-68zM799 840h-581q-28 0 -48 -20t-20 -48v0v-786
q0 -28 20 -48t48 -20h581q28 0 48 20t20 48v786q0 28 -20 48t-48 20zM816 -13q0 -7 -5 -12t-12 -5h-581q-7 0 -12 5t-5 12v785q0 7 5 12t12 5v0h581q7 0 12 -5t5 -12v-785z" />
    <glyph glyph-name="insertframe" unicode="&#xe645;" 
d="M139 845v-922h740v625l-299 297h-441zM184 800h379v-271h271v-563h-650v834zM512 478v0q-85 0 -145 -60t-60 -145t60 -145t145 -60t145 60t60 145t-60 145t-145 60zM666 341q14 -32 14 -68.5t-15 -69.5l-76 1q6 33 6 69q0 35 -7 70zM461 273v2q0 35 5 68l92 -2
q5 -32 5 -68t-6 -71l-93 2q-3 25 -3 53v17v-1zM649 375h-68q-13 49 -49 83q91 -44 123 -96zM512 426q22 0 38 -51h-78q15 51 40 51zM472 439q-31 -39 -36 -89l-63 25q43 57 112 67zM353 341h77q-6 -32 -6 -68t6 -71l-77 2q-14 32 -14 68.5t15 69.5zM373 170h65
q13 -48 50 -82q-92 44 -124 95zM510 119q-23 0 -38 51h76q-15 -51 -36 -51h-2zM550 107q31 39 36 88l61 -25q-43 -56 -113 -66z" />
    <glyph glyph-name="pdfformat" unicode="&#xe62f;" 
d="M142 845v-922h740v625l-299 297h-441zM187 800h376v-270h271v-563h-646zM288 275h-37v-107h39q69 0 69 56q0 28 -17.5 39.5t-53.5 11.5zM492 275h-27v-215h27q95 0 95 108q0 107 -95 107zM151 435v-488h699v488h-699zM294 134h-43v-110h-46v288h88q110 0 110 -87
q0 -47 -29 -70t-80 -23v2zM499 24h-79v288h75q6 1 13 1q53 0 90.5 -37.5t37.5 -90.5q0 -9 -1 -17q1 -7 1 -17q0 -54 -37.5 -91.5t-90.5 -37.5q-6 0 -11 1zM828 275h-127v-89h107v-38h-107v-124h-46v288h172z" />
    <glyph glyph-name="word" unicode="&#xe646;" 
d="M704 346q-6 -26 -15.5 -73.5t-13.5 -68.5h-4q-6 26 -17 73.5t-17 68.5l-71 270h-97l-70 -270q-8 -31 -33 -142h-4q-3 19 -12 67t-15 75l-66 271h-105l135 -499h121l61 246q11 40 32 145h4q23 -109 32 -144l65 -247h123l129 499h-98zM900 845h-774h-1q-30 0 -51.5 -21
t-22.5 -51v-774v-2q0 -30 22 -52t52 -22h2h773q30 1 51.5 22.5t21.5 51.5v3v773q-1 30 -22 50.5t-51 21.5v0zM922 -1q-1 -9 -7.5 -15.5t-15.5 -6.5h-773h-1q-9 0 -15.5 6.5t-7.5 15.5v774q1 9 7.5 15t15.5 6h2h773q9 -1 15 -7t7 -14v-774z" />
    <glyph glyph-name="excel" unicode="&#xe647;" 
d="M790 713h-143l-69 -133q-6 -12 -17.5 -34t-20.5 -40.5t-17 -34.5h-5q-43 73 -62 109l-79 133h-148l197 -314l-212 -342h144l77 138q40 80 61 117h6q27 -41 68 -117l86 -138h149l-212 327zM896 845h-774v0q-30 0 -51.5 -21.5t-22.5 -51.5v-774v-1q0 -30 22 -52t52 -22v0
h774q30 0 52 21.5t22 52.5v775q-1 30 -22.5 51.5t-51.5 21.5v0zM919 -3q-1 -9 -7.5 -15.5t-15.5 -7.5h-774q-9 1 -15.5 7.5t-6.5 15.5v775q0 9 6.5 15.5t15.5 6.5v0h774q9 -1 15.5 -7.5t7.5 -15.5v-774z" />
    <glyph glyph-name="time" unicode="&#xe64a;" 
d="M838 648l19 19l40 -39l51 51l-121 115l-51 -52l43 -35l-19 -20q-108 96 -253 107q22 23 9 40t-42 17q-26 0 -46 -17.5t-23 -43.5q-71 -12 -132 -45l97 -50q48 16 103 16q94 0 174.5 -47t127.5 -127.5t47 -175.5t-47 -176t-127.5 -127.5t-175.5 -46.5t-176 46.5
t-127.5 127.5t-46.5 176q0 91 44 170l-69 50q-59 -100 -59 -219q0 -117 58 -217t158 -158t218 -58t217.5 58t158 157.5t58.5 217.5v0q0 164 -109 286h1zM512 628q-17 0 -29.5 -12.5t-12.5 -29.5v-169q-28 -21 -28 -55.5t28 -55.5v-57q0 -17 12.5 -29.5t29.5 -12.5t29.5 12.5
t12.5 29.5v57q28 21 28 55.5t-28 55.5v169q0 17 -12.5 29.5t-29.5 12.5v0zM306 858l-99 -229l249 -5l-46 71l-46 73z" />
    <glyph glyph-name="snapscreen" unicode="&#xe650;" 
d="M819 150v545h-548v137h-66v-137h-139v-68h139v-546h544v-136h70v136h137v69h-137zM751 150h-480v477h478v-477h2zM683 354l-69 136l-138 -136l-137 205v-341h341z" />
    <glyph glyph-name="wordimage" unicode="&#xe652;" 
d="M588 177l168 -181l122 81l102 -87v323h-502v-251zM765 268q38 0 64.5 -26.5t26.5 -64t-27 -64t-64.5 -26.5t-64 26.5t-26.5 63.5v2q1 37 27.5 63t63.5 26v0v0zM976 -72l-103 87l-125 -85l-161 173l-108 -111v-69h501v3zM805 350l68 264h-98l-63 -264h93zM444 350h41l2 11
q11 40 32 145h5q23 -108 32 -144l3 -11h84l-70 263h-97l-70 -270q-8 -31 -33 -142h-3q-4 18 -13 66.5t-14 75.5l-67 270h-106l137 -499h119l17 69zM444 -28h-338v824h825v-441h49v490h-922v-922h386v49z" />
    <glyph glyph-name="edittd" unicode="&#xe65a;" 
d="M492 -29h-387v819h820v-410q65 -41 103 -108l-52 569h-922v-921h473q-48 56 -65 128zM566 123.5q0 -84.5 60 -144.5t145 -60t145 60t60 144.5t-60 144.5t-145 60t-145 -60t-60 -144.5zM451 121q0 127 90 217t217 90q47 0 93 -14l-3 299h-665v-665h278q-10 36 -10 77v-4z
" />
    <glyph glyph-name="lineheight" unicode="&#xe62a;" 
d="M403 177h-304l152 -203zM507 177h409v-51h-409v51zM504 331h410v-51h-410v51zM504 488h410v-51h-410v51zM502 642h410v-51h-410v51zM101 584h304l-152 203z" />
    <glyph glyph-name="rowspacingbottom" unicode="&#xe62b;" 
d="M665 177h-304l152 -203zM110 328h557v-52h-557v52zM108 481h712v-51h-712v51zM108 639h409v-51h-409v51zM105 793h818v-52h-818v52z" />
    <glyph glyph-name="rowspacingtop" unicode="&#xe62c;" 
d="M359 592h305l-153 203zM914 441h-556v52h556v-52zM917 288h-713v51h713v-51zM916 130h-409v51h409v-51zM919 -24h-817v51h817v-51z" />
    <glyph glyph-name="scrawl" unicode="&#xe616;" 
d="M955 616q-5 6 -13 6v0q-25 -5 -39 -24l-340 -328q-130 -176 -177 -392l110 289l12 8q3 0 43 26t49 34l342 332q30 32 13 49zM742 514q0 -22 -15 -37t-36.5 -15t-36.5 15t-15 36.5t15 36.5t37 15v0q21 0 36 -15t15 -36v-1v1zM216 337q-21 0 -36 15t-15 36.5t15 36.5t36 15
t36 -15t15 -36.5t-15 -36.5t-36 -15zM291 513q0 21 15 36t36.5 15t36.5 -15t15 -36t-15 -36t-36.5 -15t-36.5 15t-15 36zM466 564q0 21 15 36t36.5 15t36.5 -15t15 -36t-15 -36t-36 -15v0q-21 0 -36 14.5t-16 35.5v1zM854 394q-22 -129 -121.5 -214t-231.5 -86
q-57 0 -109 21q-23 9 -36 20t-13 19q0 5 -1 8t-2.5 5t-1.5 5q-10 45 -37 81q1 0 0 0t-3 1q-24 11 -43 11h-2q-11 0 -23 -3q-17 -4 -38 -4q-15 0 -28 3t-26 15t-13 33q-2 66 18 124t55 100t83.5 73.5t102 50t110.5 24.5q10 1 21 1t23 -1h1q80 0 154 -27q6 -2 37 -17
q59 -31 92 -88l1 92q-54 54 -128 73l23 -6q-2 1 -7 3q-83 31 -176 31h-2q-25 0 -50 -2q-182 -19 -313 -149q-45 -41 -75 -113t-30 -154q0 -11 1 -21v0q0 -51 40 -82q37 -26 83 -26h5q27 0 53 7l7 -1q9 0 14.5 -10t13.5 -41q0 -4 2 -11.5t3 -8.5q12 -30 37.5 -51.5
t57.5 -28.5q50 -22 121 -22h1q80 0 152.5 29t128.5 82q87 86 115 205l1 -11q8 11 13 75l2 20l-3 -18z" />
    <glyph glyph-name="redo" unicode="&#xe609;" 
d="M901 422l-88 88l-130.5 130.5l-73.5 73.5q-19 16 -44 16q-28 0 -48 -19q-19 -21 -19 -49q0 -15 5 -28q5 -8 52 -57.5t91.5 -95.5l44.5 -46h-521h-6q-25 0 -43.5 -18t-18.5 -43v-3q2 -28 21.5 -47.5t46.5 -20.5h518l-173 -172q-18 -20 -18 -46.5t18 -46.5q20 -22 49 -22
q24 0 42 15q18 17 142 140t156 156q18 23 17.5 44t-10.5 36z" />
    <glyph glyph-name="undo" unicode="&#xe600;" 
d="M129 420q17 17 87 87.5t130.5 131l73.5 73.5q19 16 44 16q28 0 48 -19q19 -21 19 -49q0 -14 -5 -28q-4 -5 -25 -27t-47.5 -50t-53 -55.5t-44.5 -45.5l-18 -19h521h3q26 0 44 -18t18 -44v-5q-1 -27 -20.5 -46.5t-47.5 -20.5h-518l174 -173q18 -20 18 -47t-18 -46
q-20 -22 -49 -22q-24 0 -42 15q-18 17 -142 140t-156 156q-20 23 -17 44.5t12 36.5t11 15z" />
    <glyph glyph-name="inserttitle" unicode="&#xe65b;" 
d="M512 380v154h-51v-103h-103v-51h-153v51h-103v103h-51v-615h922v461h-461zM339 -30h-241v168h239zM339 189h-241v140h239zM636 -30h-248v168h246zM636 189h-248v140h246zM920 -30h-234v168h232zM920 189h-234v140h232zM512 431v-52h461v466h-461v-307v-107zM563 635h154
v154h51v-154h154v-51h-154v-153h-51v153h-154v51zM99 788h103v51h-154v-153h51v102zM513 791v51h-154v-51h102v-102h52v102z" />
    <glyph glyph-name="insertparagraphtrue" unicode="&#xe660;" 
d="M177 787h-133v58h337v-58h-133v-392h-71v392zM45 384v-461h921v461h-921zM96 143h381v-169h-381v169zM528 -26v167h387v-167h-387z" />
    <glyph glyph-name="aligntable" unicode="&#xe662;" 
d="M49 741h922v-102h-922v102zM49 537h922v-103h-922v103zM49 332h922v-103h-922v103zM49 127h922v-102h-922v102z" />
    <glyph glyph-name="table" unicode="&#xe664;" 
d="M922 847h-820q-21 0 -36 -15t-15 -36v-819q0 -21 15 -36t36 -15v0h820v0q21 0 36 15t15 36v0v819q0 21 -15 36t-36 15v0zM154 313h220v-127h-220v127zM405 470h218v-126h-218v126zM654 156h216v-128h-216v128zM623 28h-218v128h218v-128zM654 186v127h216v-127h-216z
M654 344v126h216v-126h-216zM623 313v-127h-218v127h218zM374 156v-128h-220v128h220zM374 344h-220v126h220v-126zM870 745v-224h-716v224h716z" />
    <glyph glyph-name="tablealignment-left" unicode="&#xe663;" 
d="M50 744h922v-102h-922v102zM50 335h922v-103h-922v103zM50 540h615v-103h-615v103zM50 130h615v-102h-615v102z" />
    <glyph glyph-name="tablealignment-center" unicode="&#xe665;" 
d="M49 741h922v-102h-922v102zM49 537h922v-103h-922v103zM49 332h922v-103h-922v103zM49 127h922v-102h-922v102z" />
    <glyph glyph-name="tablealignment-right" unicode="&#xe666;" 
d="M973 646h-922v102h922v-102zM973 236h-922v102h922v-102zM973 441h-615v102h615v-102zM973 31h-615v103h615v-103z" />
    <glyph glyph-name="paste" unicode="&#xe667;" 
d="M791 570v153q0 13 -9 22.5t-22 9.5h-218v64q0 26 -18.5 44.5t-44.5 18.5v0h-125q-26 0 -44 -18.5t-18 -44.5v-62h-218q-13 0 -22.5 -9.5t-9.5 -21.5v-625q0 -13 9.5 -22t22.5 -9h280v-187h437l187 187v500h-187zM354 819h125v-62h-125v62zM167 694h499v-62h-499v62z
M791 -29v99h99zM916 133h-187v-188h-312v563h499v-375z" />
    <glyph glyph-name="map" unicode="&#xe668;" 
d="M375 564q-8 -23 -3 -40q4 -15 14 -24.5t18 -10.5l8 -1h43v106h-46q-14 -5 -22.5 -13.5t-11.5 -16.5zM504 445h-107q-21 4 -37.5 15t-22 18.5t-7.5 12.5q-15 36 -9 75q9 29 28.5 46t34.5 20l15 3h57v71l48 -1v-260zM705 446h-124q-21 5 -33.5 17t-14.5 20l-2 9v137l50 1
v-123q1 -6 6 -10t9 -4l4 -1h51v137h54v-183v0zM512 -125q-18 0 -27 15l-277 478q-47 81 -47 175q0 95 47 176t128 127.5t176 46.5t176 -46.5t128 -127.5t47 -176q0 -94 -47 -175l-277 -478q-9 -15 -27 -15zM512 831q-119 0 -203.5 -84.5t-84.5 -203.5q0 -77 39 -143
l249 -431l249 431q39 66 39 143q0 119 -84.5 203.5t-203.5 84.5z" />
    <glyph glyph-name="directionalityrtl" unicode="&#xe601;" 
d="M874 126l-307 256l307 256v-512zM157 640v51h358v-51h-154v-512h154v-51h-358v51h153v512h-153z" />
    <glyph glyph-name="imagecenter" unicode="&#xe602;" 
d="M53 793h921v-52h-921v52zM155 639h717v-358h-717v358zM53 178h921v-51h-921v51zM55 27h921v-52h-921v52z" />
    <glyph glyph-name="imagenone" unicode="&#xe607;" 
d="M53 789h921v-51h-921v51zM53 635h409v-512h-409v512zM565 175h409v-52h-409v52zM55 21h921v-51h-921v51zM565 328h409v-51h-409v51z" />
    <glyph glyph-name="fontborder" unicode="&#xe608;" 
d="M421 317l81 261l81 -261h-162zM575 676h-123l-184 -581h85l43 138h213l44 -138h107l-186 582zM51 845v-922h922v922h-922zM922 -26h-820v820h820v-820z" />
    <glyph glyph-name="edittable" unicode="&#xe60a;" 
d="M952 92l-137 138q13 38 13 77q0 95 -67.5 162.5t-163.5 67.5q-47 0 -90 -18l-13 -6h-4q-3 -3 -3 -8t3 -8l129 -129l-79 -81l-126 126q-4 4 -10 4q-9 0 -13 -9l-4 -10q-18 -43 -18 -90q0 -95 67.5 -162.5t162.5 -67.5q40 0 77 13l138 -138q12 -12 32.5 -20.5t37.5 -8.5
q40 0 69 29t29 70q0 16 -8.5 36.5t-20.5 32.5h-1zM922 -17q-16 -16 -39 -16h-0.5h-0.5q-22 0 -38 16l-159 159l-14 -6q-35 -16 -74 -16q-77 0 -132 54.5t-55 132.5q0 21 5 42l116 -117q4 -2 8.5 -2t8.5 2l122 122q3 4 3 9t-3 9l-114 114q21 5 42 5q77 0 132 -54.5t55 -131.5
q0 -39 -16 -75l-6 -13l159 -159q14 -16 14 -37.5t-14 -37.5zM726 845h-666v-666h252v413h414v253zM265 230h-154v154h154v-154zM265 435h-154v154h154v-154zM265 640h-154v154h154v-154zM470 640h-154v154h154v-154zM521 640v154h157v-154h-157z" />
    <glyph glyph-name="imageleft" unicode="&#xe60b;" 
d="M51 795h921v-52h-921v52zM51 641h409v-512h-409v512zM563 180h409v-51h-409v51zM53 27h921v-52h-921v52zM563 334h409v-51h-409v51zM563 487h409v-51h-409v51zM563 641h409v-51h-409v51z" />
    <glyph glyph-name="imageright" unicode="&#xe615;" 
d="M48 795h921v-52h-921v52zM562 641h409v-512h-409v512zM50 180h409v-51h-409v51zM50 27h921v-52h-921v52zM50 334h409v-51h-409v51zM50 487h409v-51h-409v51zM50 641h409v-51h-409v51z" />
    <glyph glyph-name="insertcol" unicode="&#xe625;" 
d="M300 588l-205 -179l205 -179v358zM913 77v665h-563v-665h563zM862 128h-153v154h153v-154zM862 333h-153v153h153v-153zM862 691v-153h-153v153h153zM401 691h154v-153h-154v153zM401 486h154v-153h-154v153zM401 282h154v-154h-154v154z" />
    <glyph glyph-name="insertcolnext" unicode="&#xe626;" 
d="M709 236l204 179l-204 179v-358zM95 746v-666h563v666h-563zM146 695h154v-154h-154v154zM146 490h154v-154h-154v154zM146 132v153h154v-153h-154zM607 132h-153v153h153v-153zM607 336h-153v154h153v-154zM607 541h-153v154h153v-154z" />
    <glyph glyph-name="insertorderedlist" unicode="&#xe635;" 
d="M307 785h666v-103h-666v103zM307 426h666v-102h-666v102zM307 68h666v-103h-666v103zM187 836v-239h-67v239h67zM51 256v26q0 27 19.5 50.5t43 37.5t43.5 28.5t20 25.5q0 22 -26 22q-14 -1 -31 -9.5t-27 -18.5l-37 41q17 18 45.5 31t53.5 13h4q45 -2 71 -23t26 -54
q0 -26 -18.5 -45t-50 -37t-43.5 -30h112v-58h-205zM154 -86h-6q-23 0 -51.5 12.5t-45.5 29.5l39 38q10 -9 26.5 -16t29.5 -7q16 0 24.5 7t8.5 19q0 20 -29 20h-19v41h20q29 0 29 21q0 25 -31 25q-13 0 -28 -7.5t-23 -17.5l-39 38q16 18 44 30.5t52 12.5h7q44 0 69.5 -20
t25.5 -49v-4q0 -19 -14 -33.5t-41 -17.5q57 -7 57 -51v-3q-2 -29 -31.5 -48.5t-73.5 -19.5z" />
    <glyph glyph-name="insertparagraphbeforetable" unicode="&#xe636;" 
d="M358 435v-512h615v512h-615zM563 -26h-153v410h153v-410zM922 -26h-308v103h308v-103zM922 128h-308v102h308v-102zM922 282h-308v102h308v-102zM412 847h-359v-51h154v-410h51v410h154v51zM463 284h51v-205h-51v205z" />
    <glyph glyph-name="insertrow" unicode="&#xe637;" 
d="M714 587l-179 205l-180 -205h359zM205 -26h665v564h-665v-564zM256 26v153h154v-153h-154zM461 26v153h153v-153h-153zM819 26h-153v153h153v-153zM819 486v-153h-153v153h153zM614 486v-153h-153v153h153zM410 486v-153h-154v153h154z" />
    <glyph glyph-name="insertrownext" unicode="&#xe639;" 
d="M304 183l179 -205l179 205h-358zM814 796h-666v-563h666v563zM762 745v-154h-153v154h153zM558 745v-154h-154v154h154zM199 745h154v-154h-154v154zM199 284v154h154v-154h-154zM404 284v154h154v-154h-154zM609 284v154h153v-154h-153z" />
    <glyph glyph-name="insertunorderedlist" unicode="&#xe641;" 
d="M258 780h665v-103h-665v103zM258 421h665v-103h-665v103zM258 62h665v-102h-665v102zM104 780h102v-103h-102v103zM104 421h102v-103h-102v103zM104 62h102v-102h-102v102z" />
    <glyph glyph-name="mergeright" unicode="&#xe642;" 
d="M51 742v-716h922v716h-922zM307 691h410v-153h-410v153zM410 333v102h256v51l153 -102l-153 -102v51h-256zM256 77h-154v153h154v-153zM256 307h-154v154h154v-154zM256 538h-154v153h154v-153zM717 77h-410v153h410v-153zM922 77h-154v153h154v-153zM922 538h-154v153
h154v-153z" />
    <glyph glyph-name="mergedown" unicode="&#xe643;" 
d="M51 742v-716h922v716h-922zM256 77h-154v153h154v-153zM256 307h-154v154h154v-154zM256 538h-154v153h154v-153zM512 77l-102 153h51v256h102v-256h51zM717 538h-410v153h410v-153zM922 77h-154v153h154v-153zM922 307h-154v154h154v-154zM922 538h-154v153h154v-153z
" />
    <glyph glyph-name="inserttable" unicode="&#xe644;" 
d="M51 845v-922h922v922h-922zM102 794h820v-205h-820v205zM922 538v-154h-256v154h256zM614 179h-256v154h256v-154zM614 384h-256v154h256v-154zM102 538h205v-154h-205v154zM102 333h205v-154h-205v154zM307 -26h-205v154h205v-154zM358 -26v154h256v-154h-256zM922 -26
h-256v154h256v-154zM666 179v154h256v-154h-256z" />
    <glyph glyph-name="pagebreak" unicode="&#xe648;" 
d="M47 549v-304l202 152zM352 738h463v-53h-463v53zM354 175h180v-53h-180v53zM354 20h409v-52h-409v52zM199 277v-358h51v307h616v-307h51v358h-718zM917 840h-50v-256h-616v256h-51v-307h719v307h-2z" />
    <glyph glyph-name="source" unicode="&#xe649;" 
d="M205 427h-103v102h-51v-256h51v103h103v-103h51v256h-51v-102zM307 478h51v-205h52v205h51v51h-154v-51zM716 530l-76 -202l-76 203l-2 -1h-50v-256h51v114l43 -114v-1h66h2l43 114v-114h51v256h-50zM870 325v204h-51v-256h154v52h-103z" />
    <glyph glyph-name="splittorows" unicode="&#xe64b;" 
d="M51 794v-820h922v820h-922zM256 26h-154v204h154v-204zM256 282h-154v204h154v-204zM256 538h-154v204h154v-204zM717 26h-410v204h410v-204zM717 282h-410v204h410v-204zM717 538h-410v204h410v-204zM922 26h-154v204h154v-204zM922 282h-154v204h154v-204zM922 538
h-154v204h154v-204z" />
    <glyph glyph-name="splittocols" unicode="&#xe64c;" 
d="M51 794v-820h922v820h-922zM256 26h-154v204h154v-204zM256 282h-154v204h154v-204zM256 538h-154v204h154v-204zM307 26v716h103v-716h-103zM461 26v716h102v-716h-102zM717 26h-103v716h103v-716zM922 26h-154v204h154v-204zM922 282h-154v204h154v-204zM922 538h-154
v204h154v-204z" />
    <glyph glyph-name="splittocells" unicode="&#xe64d;" 
d="M466 186h359v-51h-359v51zM57 852v-922h921v922h-921zM108 545h205v-154h-205v154zM364 545h256v-154h-256v154zM108 340h205v-154h-205v154zM108 -18v153h205v-153h-205zM927 -18h-563v358h563v-358zM927 391h-256v154h256v-154zM927 596h-563v205h563v-205z" />
    <glyph glyph-name="arrow" unicode="&#xe64f;" 
d="M513 230l205 205h-410z" />
    <glyph glyph-name="aligntd" unicode="&#xe651;" 
d="M307 169h410v-51h-410v51zM307 323h410v-51h-410v51zM307 477h410v-52h-410v52zM307 630h410v-51h-410v51zM794 -87h-564q-31 0 -53.5 22.5t-22.5 54.5v768q0 32 22.5 54.5t53.5 22.5h564q31 0 53.5 -22.5t22.5 -54.5v-768q0 -32 -22.5 -54.5t-53.5 -22.5zM230 784
q-10 0 -17.5 -7.5t-7.5 -18.5v-768q0 -10 7.5 -17.5t17.5 -7.5h564v0q10 0 17.5 7.5t7.5 17.5v768q0 11 -7.5 18.5t-17.5 7.5h-564z" />
    <glyph glyph-name="autotypeset" unicode="&#xe653;" 
d="M210 693h308v-307h-308v307zM569 691h254v-51h-254v51zM569 539h254v-51h-254v51zM210 283h615v-51h-615v51zM210 130h615v-52h-615v52zM57 845v-922h921v922h-921zM927 -26h-819v820h819v-820z" />
    <glyph glyph-name="charts" unicode="&#xe658;" 
d="M51 794v-768h922v768h-922zM922 77h-820v665h820v-665zM256 484h102v-307h-102v307zM461 331h102v-154h-102v154zM666 638h102v-461h-102v461z" />
    <glyph glyph-name="closeerror" unicode="&#xe65c;" 
d="M512 839v0q-94 0 -179 -36.5t-147 -98t-98.5 -147t-36.5 -179t36.5 -179t98.5 -147t147 -98t179 -36.5t179 36.5t147 98t98.5 147t36.5 179t-36.5 179t-98.5 147t-147 98t-179 36.5zM768 236l-114 -114l-142 142l-140 -142l-116 114l142 142l-142 142l115 114l141 -142
l142 142l114 -114l-142 -142z" />
    <glyph glyph-name="copy" unicode="&#xe65f;" 
d="M301 435h359v-51h-359v51zM301 282h359v-52h-359v52zM301 128h359v-51h-359v51zM301 589h205v-51h-205v51zM813 614h-154v180q0 21 -15 36t-36 15h-403q-24 -1 -41 -18t-17 -41v0v-804v0q0 -24 17 -41t41 -18h600q25 0 42 17.5t17 41.5v581q0 21 -15 36t-36 15zM813 -18
q0 -8 -8 -8h-600v0q-8 0 -8 8v804v0q0 8 8 8h390q10 0 10 -10v-170q0 -21 15 -36t36 -15h146q9 -1 10 -10v-571h1z" />
    <glyph glyph-name="date" unicode="&#xe661;" 
d="M857 696v-55h58v-559h-805v557h56v57h-115v-670h922v670h-116zM819 794h-204v-256h204v256zM564 232h256v-53h-256v53zM564 384h256v-51h-256v51zM461 696h103v-57h-103v57zM205 232h256v-53h-256v53zM205 384h256v-51h-256v51zM410 794h-205v-256h205v256z" />
    <glyph glyph-name="deletetable" unicode="&#xe669;" 
d="M608 849v-358h358v358h-358zM950 580l-72 -73l-91 91l-90 -91l-73 73l93 90l-93 91l72 72l91 -91l91 91l72 -73l-90 -90zM915 389h-256v102h-51v-102h-256v153h256v51h-512v205h512v51h-563v-921h921v563h-51v-102zM301 -21h-205v154h205v-154zM301 184h-205v153h205
v-153zM301 389h-205v153h205v-153zM608 -21h-256v154h256v-154zM608 184h-256v153h256v-153zM915 -21h-256v154h256v-154zM915 184h-256v153h256v-153z" />
    <glyph glyph-name="directionalityltr" unicode="&#xe66a;" 
d="M157 126l307 256l-307 256v-512zM875 640v51h-358v-51h153v-512h-153v-51h358v51h-154v512h154z" />
    <glyph glyph-name="arrowright" unicode="&#xe66b;" 
d="M615 384l-204 205v-410z" />
    <glyph glyph-name="tableleft" unicode="&#xe66c;" 
d="M960 832v-896h-896v896h896zM1024 896h-1024v-1024h1024v1024zM192 704h640v-64h-640v64zM192 512h640v-64h-640v64zM192 320h256v-64h-256v64z" />
    <glyph glyph-name="tableright" unicode="&#xe66d;" 
d="M960 832v-896h-896v896h896zM1024 896h-1024v-1024h1024v1024zM189 705h640v-64h-640v64zM189 513h640v-64h-640v64zM576 321h256v-64h-256v64z" />
    <glyph glyph-name="tablecenter" unicode="&#xe66e;" 
d="M960 832v-896h-896v896h896zM1024 896h-1024v-1024h1024v1024zM189 703h640v-64h-640v64zM189 511h640v-64h-640v64zM383 319h256v-64h-256v64z" />
    <glyph glyph-name="videoleft" unicode="&#xe66f;" 
d="M96 800h832v-32h-832v32zM96 704h832v-32h-832v32zM96 96h832v-32h-832v32zM96 0h399v-32h-399v32zM704 192h224v-32h-224v32zM704 288h224v-32h-224v32zM704 384h224v-32h-224v32zM704 480h224v-32h-224v32zM704 576h224v-32h-224v32zM256 416zM192 416q0 -26 19 -45
t45 -19t45 19t19 45t-19 45t-45 19t-45 -19t-19 -45zM640 576h-512q-13 0 -22.5 -9.5t-9.5 -22.5v-352q0 -13 9.5 -22.5t22.5 -9.5h512q13 0 22.5 9.5t9.5 22.5v352q0 13 -9.5 22.5t-22.5 9.5zM640 324l-96 124l-162 -209l-78 94l-117 -141h-27q-13 0 -22.5 9.5t-9.5 22.5
v288q0 13 9.5 22.5t22.5 9.5h448q13 0 22.5 -9.5t9.5 -22.5v-188zM992 864v-960h-960v960h960zM992 896h-960q-13 0 -22.5 -9.5t-9.5 -22.5v-960q0 -13 9.5 -22.5t22.5 -9.5h960q13 0 22.5 9.5t9.5 22.5v960q0 13 -9.5 22.5t-22.5 9.5z" />
    <glyph glyph-name="videocenter" unicode="&#xe670;" 
d="M96 800h832v-32h-832v32zM96 704h832v-32h-832v32zM96 96h832v-32h-832v32zM96 0h399v-32h-399v32zM96 192h96v-32h-96v32zM96 288h96v-32h-96v32zM96 384h96v-32h-96v32zM96 480h96v-32h-96v32zM96 576h96v-32h-96v32zM832 288h96v-32h-96v32zM832 192h96v-32h-96v32z
M832 384h96v-32h-96v32zM832 480h96v-32h-96v32zM832 576h96v-32h-96v32zM384 416zM320 416q0 -26 19 -45t45 -19t45 19t19 45t-19 45t-45 19t-45 -19t-19 -45zM768 576h-512q-13 0 -22.5 -9.5t-9.5 -22.5v-352q0 -13 9.5 -22.5t22.5 -9.5h512q13 0 22.5 9.5t9.5 22.5v352
q0 13 -9.5 22.5t-22.5 9.5zM768 324l-96 124l-162 -209l-78 94l-117 -141h-27q-13 0 -22.5 9.5t-9.5 22.5v288q0 13 9.5 22.5t22.5 9.5h448q13 0 22.5 -9.5t9.5 -22.5v-188zM992 864v-960h-960v960h960zM992 896h-960q-13 0 -22.5 -9.5t-9.5 -22.5v-960q0 -13 9.5 -22.5
t22.5 -9.5h960q13 0 22.5 9.5t9.5 22.5v960q0 13 -9.5 22.5t-22.5 9.5z" />
    <glyph glyph-name="videonone" unicode="&#xe671;" 
d="M96 800h832v-32h-832v32zM96 704h832v-32h-832v32zM96 96h832v-32h-832v32zM96 0h399v-32h-399v32zM704 192h224v-32h-224v32zM704 288h224v-32h-224v32zM256 416zM192 416q0 -26 19 -45t45 -19t45 19t19 45t-19 45t-45 19t-45 -19t-19 -45zM640 576h-512
q-13 0 -22.5 -9.5t-9.5 -22.5v-352q0 -13 9.5 -22.5t22.5 -9.5h512q13 0 22.5 9.5t9.5 22.5v352q0 13 -9.5 22.5t-22.5 9.5zM640 324l-96 124l-162 -209l-78 94l-117 -141h-27q-13 0 -22.5 9.5t-9.5 22.5v288q0 13 9.5 22.5t22.5 9.5h448q13 0 22.5 -9.5t9.5 -22.5v-188z
M992 864v-960h-960v960h960zM992 896h-960q-13 0 -22.5 -9.5t-9.5 -22.5v-960q0 -13 9.5 -22.5t22.5 -9.5h960q13 0 22.5 9.5t9.5 22.5v960q0 13 -9.5 22.5t-22.5 9.5z" />
    <glyph glyph-name="videoright" unicode="&#xe672;" 
d="M96 800h832v-32h-832v32zM96 704h832v-32h-832v32zM96 96h832v-32h-832v32zM96 0h399v-32h-399v32zM96 192h224v-32h-224v32zM96 288h224v-32h-224v32zM96 384h224v-32h-224v32zM96 480h224v-32h-224v32zM96 576h224v-32h-224v32zM512 416zM448 416q0 -26 19 -45t45 -19
t45 19t19 45t-19 45t-45 19t-45 -19t-19 -45zM896 576h-512q-13 0 -22.5 -9.5t-9.5 -22.5v-352q0 -13 9.5 -22.5t22.5 -9.5h512q13 0 22.5 9.5t9.5 22.5v352q0 13 -9.5 22.5t-22.5 9.5zM896 324l-96 124l-162 -209l-78 94l-117 -141h-27q-13 0 -22.5 9.5t-9.5 22.5v288
q0 13 9.5 22.5t22.5 9.5h448q13 0 22.5 -9.5t9.5 -22.5v-188zM992 864v-960h-960v960h960zM992 896h-960q-13 0 -22.5 -9.5t-9.5 -22.5v-960q0 -13 9.5 -22.5t22.5 -9.5h960q13 0 22.5 9.5t9.5 22.5v960q0 13 -9.5 22.5t-22.5 9.5z" />
    <glyph glyph-name="template" unicode="&#xe64e;" 
d="M0 832v-896h1024v896h-1024zM960 0h-896v768h896v-768zM192 640h320v-192h-320v192zM640 640h192v-512h-192v512zM192 320h320v-192h-320v192z" />
  </font>
</defs>
</svg>
